<svg
  xmlns="http://www.w3.org/2000/svg"
  xml:space="preserve"
  width="100%"
  height="100%"
  style="fill-rule:evenodd;clip-rule:evenodd;stroke-linecap:round;stroke-linejoin:round;stroke-miterlimit:1.5"
  viewBox="0 0 500 500"
  ><path
    d="M421.142 290.105q.37-1.065.724-2.135a332 332 0 0 1-.681 3.022z"
    style="fill:#161b33;fill-opacity:.9;stroke:#000;stroke-width:4.17px"
  ></path><path
    d="M421.866 287.97a332 332 0 0 1-.681 3.022l-.043-.887q.37-1.065.724-2.135"
    style="fill:#292b3e;stroke:#000;stroke-width:4.17px"
  ></path><path
    d="M421.866 287.97c20.311-61.305 4.162-135.43-61.636-200.983l133.524 25.501c-6.216 223.324-111.479 322.839-248.617 382.509C104.634 436.899-4.28 304.97 6.246 110.978c46.711-4.823 88.998-12.3 126.988-22.355-141.01 140.949-31.751 323.225 111.851 326.163 89.407-9.251 153.453-59.507 176.057-124.681l.043.887q.349-1.515.681-3.022"
    style="fill:#fff;stroke:#fff;stroke-width:4.17px"
  ></path><path
    d="m179.076 86.987 89.666 81.15 123.537 88.492C311.294 504.622-51.532 285.557 179.076 86.987m-2.804 35.256C59.534 260.664 240.256 394.272 334.348 266.119l-38.635-39.025c-52.893 69.768-131.888 2.39-83.034-71.638zm56.731 64.526c-7.525-11.333-22.421-12.501-26.053 2.453 4.561 12.75 21.779 8.51 26.053-2.453"
    style="fill:#fff;stroke:#fff;stroke-width:4.17px"
  ></path><path
    d="M421.142 290.105c-3.402-67.56-43.141-114.063-114.105-141.643C236.899 113.471 202.09 66.156 206.95 5.003c32.475 47.292 75.301 78.482 127.398 95.252 85.149 35.301 106.49 101.688 87.518 187.715q-.354 1.07-.724 2.135"
    style="fill:#fff;stroke:#fff;stroke-width:4.17px"
  >
  </path>
</svg>